<?xml version="1.0" encoding="UTF-8"?>
<svg id="Capa_1" xmlns="http://www.w3.org/2000/svg" version="1.1" viewBox="0 0 800 800">
  <!-- Generator: Adobe Illustrator 30.0.0, SVG Export Plug-In . SVG Version: 2.1.1 Build 123)  -->
  <defs>
    <style>
      .st0 {
        fill: #fff;
      }

      .st1 {
        fill: #f24b4b;
      }
    </style>
  </defs>
  <path class="st1" d="M404,11.12C189.57,11.12,15.12,185.57,15.12,400s174.45,388.88,388.88,388.88,388.88-174.45,388.88-388.88S618.43,11.12,404,11.12Z"/>
  <path class="st0" d="M605.74,389.29l-285.18-194.44c-3.98-2.7-9.11-2.99-13.36-.75-4.24,2.24-6.9,6.65-6.9,11.46v388.88c0,4.81,2.66,9.22,6.91,11.46,1.89,1.01,3.98,1.5,6.05,1.5,2.55,0,5.11-.76,7.3-2.26l285.18-194.44c3.54-2.41,5.66-6.42,5.66-10.71s-2.13-8.3-5.66-10.71Z"/>
</svg>