<svg width="58" height="40" viewBox="0 0 58 40" fill="none" xmlns="http://www.w3.org/2000/svg">
<path d="M13.0565 29.4215H5.85752L4.81846 32.624H1.46919L7.01855 15.9394H11.774L17.409 32.624H14.12L13.0565 29.4215ZM12.3239 27.0869L9.43882 18.396L6.60297 27.0869H12.3239Z" fill="#1B0757"/>
<path d="M34.3387 15.9394V32.624H28.9721L24.205 23.469C23.9681 23.0126 23.5986 22.214 23.093 21.0729L22.555 19.8751L22.0295 18.6771H21.9075L21.9555 19.7774L21.9929 20.8652L22.0169 23.053V32.624H18.8513V15.9394H24.2178L28.5565 24.398C28.9391 25.1479 29.3844 26.0562 29.8894 27.1235L30.5244 28.4807L31.1601 29.8494H31.2708L31.2334 28.7737L31.1968 27.6982L31.1732 25.5463V15.9394H34.3387Z" fill="#1B0757"/>
<path d="M37.2723 32.624V15.9394H45.4735C47.3966 15.9394 48.7068 16.2467 49.4042 16.8618C50.1002 17.4773 50.4498 18.6364 50.4498 20.3395C50.4498 22.4012 49.6297 23.6155 47.9919 23.982V24.0433C49.8993 24.3366 50.8521 25.6612 50.8521 28.0159C50.8521 29.719 50.4858 30.9132 49.7516 31.5973C49.0186 32.2821 47.7395 32.624 45.9147 32.624H37.2723ZM40.4379 22.9432H44.3126C45.5682 22.9432 46.3679 22.8047 46.7145 22.5278C47.0609 22.2504 47.2345 21.611 47.2345 20.6081C47.2345 19.2722 46.4764 18.6043 44.9607 18.6043H40.4379V22.9432ZM40.4379 29.9592H43.9096L45.0213 29.9349C46.0892 29.9349 46.7923 29.7843 47.1307 29.4827C47.4679 29.1816 47.6374 28.5458 47.6374 27.5759C47.6374 26.5657 47.4597 25.9298 47.1052 25.6691C46.7512 25.4084 45.8775 25.2782 44.4835 25.2782H40.4379V29.9592Z" fill="#1B0757"/>
<path d="M56.3165 15.9394V32.624H53.1505V15.9394H56.3165Z" fill="#1B0757"/>
<path d="M22.6854 0.296473C22.8019 0.885168 23.3902 3.68194 23.5471 4.23651C23.4714 4.22568 23.3845 4.21411 23.2795 4.21411C23.1745 4.21411 23.093 4.22568 23.0171 4.23651C22.9771 3.82906 22.8192 2.99697 22.7552 2.70799C22.6391 2.70267 22.3063 2.69126 21.9803 2.69126C21.7245 2.69126 21.4679 2.70267 21.2121 2.70799C21.0019 3.01406 20.4839 3.86855 20.2973 4.23651C20.2444 4.22568 20.1923 4.21411 20.1109 4.21411C20.046 4.21411 19.9768 4.22568 19.8891 4.23651C20.5653 3.2796 21.2229 2.31174 21.8753 1.33779C22.1669 0.902102 22.3704 0.619005 22.5749 0.296473H22.6854ZM22.3889 0.986967H22.3704L21.3572 2.48715C21.5784 2.49835 21.8057 2.50429 22.0332 2.50429C22.2544 2.50429 22.4817 2.49835 22.7084 2.48715L22.3889 0.986967Z" fill="#1B0757"/>
<path d="M24.5501 4.23651C24.493 4.22568 24.417 4.21411 24.3118 4.21411C24.2131 4.21411 24.1429 4.22568 24.0788 4.23651C24.4569 2.8722 24.8708 0.828434 24.9936 0.00196886C25.0571 0.0131698 25.1157 0.02458 25.2146 0.02458C25.3021 0.02458 25.4008 0.0131698 25.4832 0.00196886C25.3955 0.302151 24.7019 3.26839 24.5501 4.23651Z" fill="#1B0757"/>
<path d="M26.1244 3.20615C26.0315 3.16666 25.705 3.03053 25.705 2.57223C25.705 2.04006 26.1474 1.50221 26.9804 1.50221C27.1723 1.50221 27.2537 1.52482 27.4228 1.56978C27.5278 1.59828 27.598 1.59828 27.7207 1.59828C27.8601 1.59828 28.1454 1.5814 28.297 1.57546C28.297 1.60969 28.2849 1.64934 28.2849 1.69456C28.2849 1.73993 28.297 1.77979 28.297 1.8136C28.0176 1.79688 27.8829 1.79099 27.7433 1.78531C27.8072 1.86465 27.9069 1.99469 27.9069 2.24949C27.9069 2.56656 27.738 2.96296 27.3471 3.17218C27.0738 3.31972 26.7474 3.33071 26.561 3.33071C26.4334 3.33071 26.3109 3.32519 26.2231 3.31972C26.159 3.35921 25.9848 3.45543 25.9848 3.6309C25.9848 3.85736 26.2288 3.86309 26.4146 3.86309C27.0738 3.86856 27.283 3.86856 27.4987 3.99313C27.714 4.11743 27.7551 4.34415 27.7551 4.4856C27.7551 4.92149 27.3707 5.71436 26.2524 5.71436C25.9781 5.71436 25.7105 5.66898 25.5186 5.51612C25.3672 5.39729 25.25 5.19886 25.25 4.97828C25.25 4.71206 25.4134 4.46319 25.6348 4.32707C25.7628 4.24767 25.8741 4.20839 25.9383 4.18541L25.9433 4.14593C25.8558 4.12337 25.6228 4.05517 25.6228 3.81808C25.6228 3.46684 25.949 3.32519 26.1244 3.24605V3.20615ZM26.3164 5.54441C27.0154 5.54441 27.3587 5.06335 27.3587 4.66101C27.3587 4.2198 26.8811 4.2025 26.5666 4.2025C26.4146 4.2025 26.1297 4.21412 25.9262 4.34415C25.6403 4.52545 25.6 4.80855 25.6 4.9502C25.6 5.37447 25.9433 5.54441 26.3164 5.54441ZM26.689 3.16666C27.2537 3.16666 27.4637 2.54947 27.4637 2.20412C27.4637 1.87565 27.2657 1.66627 26.9513 1.66627C26.3627 1.66627 26.1537 2.27226 26.1537 2.60073C26.1537 3.03053 26.444 3.16666 26.689 3.16666Z" fill="#1B0757"/>
<path d="M30.5407 4.03873C30.2552 4.20252 29.923 4.2876 29.5918 4.2876C29.0901 4.2876 28.4322 4.02144 28.4322 3.1211C28.4322 2.23284 29.0378 1.50812 29.9287 1.50812C30.4823 1.50812 30.9721 1.7511 30.9721 2.43613C30.9721 2.64571 30.931 2.79857 30.907 2.89505C30.477 2.87223 30.3134 2.86676 29.6198 2.86676C29.3988 2.86676 29.0954 2.87223 28.9155 2.87791C28.9035 2.95142 28.8862 3.05905 28.8862 3.20617C28.8862 3.94225 29.4045 4.0839 29.7313 4.0839C30.1799 4.0839 30.4652 3.87999 30.5993 3.78372H30.6166L30.5407 4.03873ZM28.9558 2.65165C29.1949 2.66832 29.5095 2.674 29.7488 2.674C29.9753 2.674 30.3081 2.674 30.5238 2.65165C30.5407 2.58367 30.5579 2.4927 30.5579 2.34579C30.5579 1.84191 30.232 1.67197 29.9287 1.67197C29.6145 1.67197 29.1312 1.87041 28.9558 2.65165Z" fill="#1B0757"/>
<path d="M32.2018 1.97801H32.2135C32.3471 1.84188 32.6447 1.52481 33.1695 1.52481C33.7283 1.52481 33.8323 1.87563 33.8856 2.07386C34.0658 1.85308 34.369 1.52481 34.904 1.52481C35.4113 1.52481 35.6616 1.84188 35.6616 2.12471C35.6616 2.2438 35.6215 2.43609 35.5747 2.65162L35.3529 3.68194C35.2831 4.00426 35.2715 4.14591 35.2597 4.23651C35.1956 4.22568 35.1199 4.21411 35.0334 4.21411C34.9453 4.21411 34.8578 4.22568 34.7821 4.23651C34.8812 3.9593 35.2369 2.5891 35.2369 2.28939C35.2369 1.97212 35.0155 1.79098 34.7068 1.79098C34.409 1.79098 34.0135 1.97212 33.8736 2.43609C33.7802 2.74195 33.5702 3.80077 33.501 4.23651C33.4369 4.22568 33.3494 4.21411 33.2796 4.21411C33.1921 4.21411 33.1044 4.22568 33.0289 4.23651C33.1575 3.84615 33.4717 2.5891 33.4717 2.2438C33.4717 1.90981 33.1868 1.79098 32.9538 1.79098C32.8248 1.79098 32.3242 1.83026 32.1205 2.4475C32.0271 2.73054 31.7999 3.89137 31.7584 4.23651C31.6949 4.22568 31.6135 4.21411 31.5256 4.21411C31.4442 4.21411 31.3565 4.22568 31.2926 4.23651C31.4855 3.58566 31.7942 2.1815 31.8756 1.55331C31.922 1.56446 32.0098 1.57545 32.0792 1.57545C32.1605 1.57545 32.2427 1.56446 32.3177 1.55331L32.2018 1.97801Z" fill="#1B0757"/>
<path d="M38.3082 4.03873C38.0223 4.20252 37.6906 4.2876 37.3594 4.2876C36.8572 4.2876 36.1999 4.02144 36.1999 3.1211C36.1999 2.23284 36.8053 1.50812 37.6962 1.50812C38.2498 1.50812 38.7396 1.7511 38.7396 2.43613C38.7396 2.64571 38.6985 2.79857 38.6745 2.89505C38.2441 2.87223 38.0809 2.86676 37.3873 2.86676C37.1665 2.86676 36.8639 2.87223 36.6832 2.87791C36.671 2.95142 36.6537 3.05905 36.6537 3.20617C36.6537 3.94225 37.1726 4.0839 37.4988 4.0839C37.9476 4.0839 38.2325 3.87999 38.3668 3.78372H38.3841L38.3082 4.03873ZM36.7239 2.65165C36.9626 2.66832 37.277 2.674 37.5166 2.674C37.743 2.674 38.0758 2.674 38.2909 2.65165C38.3082 2.58367 38.3255 2.4927 38.3255 2.34579C38.3255 1.84191 37.9994 1.67197 37.6962 1.67197C37.3823 1.67197 36.8989 1.87041 36.7239 2.65165Z" fill="#1B0757"/>
<path d="M41.222 4.03873C40.9371 4.20252 40.6043 4.2876 40.2726 4.2876C39.771 4.2876 39.113 4.02144 39.113 3.1211C39.113 2.23284 39.7191 1.50812 40.6098 1.50812C41.1634 1.50812 41.6534 1.7511 41.6534 2.43613C41.6534 2.64571 41.6114 2.79857 41.5887 2.89505C41.1583 2.87223 40.9945 2.86676 40.3015 2.86676C40.0797 2.86676 39.7775 2.87223 39.597 2.87791C39.5848 2.95142 39.5675 3.05905 39.5675 3.20617C39.5675 3.94225 40.0864 4.0839 40.4124 4.0839C40.8607 4.0839 41.1461 3.87999 41.2804 3.78372H41.2977L41.222 4.03873ZM39.6377 2.65165C39.8762 2.66832 40.1902 2.674 40.4297 2.674C40.6562 2.674 40.9889 2.674 41.2047 2.65165C41.222 2.58367 41.2393 2.4927 41.2393 2.34579C41.2393 1.84191 40.913 1.67197 40.6098 1.67197C40.2954 1.67197 39.8121 1.87041 39.6377 2.65165Z" fill="#1B0757"/>
<path d="M42.907 1.97212L42.9304 1.98332C43.0926 1.7853 43.4487 1.52481 43.8913 1.52481C44.304 1.52481 44.707 1.75107 44.707 2.20411C44.707 2.35123 44.6941 2.40801 44.5731 2.91736C44.5086 3.18373 44.3335 3.99879 44.3106 4.23651C44.247 4.22568 44.1711 4.21411 44.0887 4.21411C44.0022 4.21411 43.9025 4.22568 43.8329 4.23651C43.9208 3.98191 44.2694 2.68538 44.2694 2.29486C44.2694 1.95503 43.9845 1.79098 43.6929 1.79098C43.5006 1.79098 43.024 1.88131 42.8484 2.3966C42.7147 2.78712 42.4755 4.05516 42.4461 4.23651C42.3874 4.22568 42.3127 4.21411 42.2301 4.21411C42.1494 4.21411 42.0618 4.22568 41.9973 4.23651C42.155 3.71554 42.5101 2.01156 42.5858 1.55331C42.6444 1.56446 42.7147 1.57545 42.7961 1.57545C42.8657 1.57545 42.9477 1.56446 43.0173 1.55331L42.907 1.97212Z" fill="#1B0757"/>
<path d="M47.9762 0.307659C48.3141 0.896406 49.9161 3.1608 50.202 3.48354C50.3003 3.12725 50.6904 1.30401 50.8013 0.358557C50.8538 0.369758 50.9352 0.381168 51.0054 0.381168C51.0801 0.381168 51.1218 0.369758 51.1804 0.358557C50.9647 1.08322 50.3644 3.77252 50.3003 4.29901H50.2188C50.0381 3.98784 48.2331 1.43998 47.9933 1.14569C47.8246 1.81362 47.4227 3.71558 47.382 4.23655C47.324 4.22571 47.2599 4.21415 47.184 4.21415C47.1199 4.21415 47.0381 4.22571 46.9805 4.23655C47.2481 3.46098 47.8189 0.811332 47.9061 0.307659H47.9762Z" fill="#1B0757"/>
<path d="M53.3839 3.85171L53.3605 3.8291C53.1735 4.04441 52.8473 4.29901 52.3691 4.29901C51.9852 4.29901 51.5538 4.06661 51.5538 3.64801C51.5538 3.50615 51.6295 3.2117 51.7344 2.75319C51.7811 2.55517 51.9093 1.96095 51.9623 1.55335C52.0321 1.5645 52.1196 1.57549 52.2175 1.57549C52.3123 1.57549 52.3931 1.5645 52.4696 1.55335C52.3123 2.11928 52.0142 3.17221 52.0142 3.48354C52.0142 3.83462 52.2243 4.02691 52.5801 4.02691C53.0281 4.02691 53.3308 3.71558 53.448 3.37044C53.5929 2.9459 53.8143 1.65509 53.832 1.55335C53.9138 1.5645 53.9898 1.57549 54.0643 1.57549C54.1524 1.57549 54.2331 1.5645 54.304 1.55335C54.1873 1.92714 53.7913 3.55153 53.7153 4.23655C53.6455 4.22571 53.5814 4.21415 53.5053 4.21415C53.4188 4.21415 53.3428 4.22571 53.2787 4.23655L53.3839 3.85171Z" fill="#1B0757"/>
<path d="M55.8429 0.845518C55.7674 1.10559 55.709 1.36649 55.6502 1.62697C55.8315 1.62697 56.0529 1.60968 56.256 1.60415C56.2336 1.68334 56.2217 1.75659 56.2217 1.83614C56.018 1.83025 55.7783 1.81358 55.6038 1.81358L55.3766 2.87787C55.3246 3.12106 55.2433 3.48944 55.2433 3.67053C55.2433 3.97071 55.4866 4.08386 55.6559 4.08386C55.7903 4.08386 55.9247 4.0387 56.0409 3.97071L56.0299 4.11741C55.8716 4.23651 55.6278 4.29303 55.435 4.29303C55.1328 4.29303 54.8119 4.11194 54.8119 3.76112C54.8119 3.61374 54.8531 3.44422 54.8932 3.25703C55.0615 2.48126 55.0912 2.3966 55.2079 1.81358C55.0969 1.81358 54.9515 1.81926 54.8234 1.82478C54.8463 1.76248 54.8583 1.7171 54.8583 1.60415C54.9812 1.60968 55.1328 1.62697 55.2313 1.62697L55.3365 1.02681L55.8429 0.845518Z" fill="#1B0757"/>
<path d="M9.66162 8.50516C10.3366 8.56742 10.5351 8.97508 10.5351 9.26932C10.5351 9.68281 10.2619 10.13 9.78394 10.3623C9.39952 10.5491 8.95096 10.5659 8.73528 10.5659C8.61905 10.5659 8.10642 10.5435 8.00145 10.5435C7.89116 10.5435 7.81525 10.5549 7.7395 10.5659C8.03625 9.47344 8.42088 7.68422 8.58347 6.68807C8.66568 6.6936 8.79368 6.71027 8.89256 6.71027C9.11398 6.71027 9.38201 6.68807 9.64964 6.68807C9.97034 6.68807 10.1918 6.72736 10.366 6.81832C10.6346 6.95976 10.728 7.21436 10.728 7.40154C10.728 7.96752 10.1451 8.38081 9.67324 8.46567L9.66162 8.50516ZM9.35268 8.6128C9.23041 8.59592 9.08532 8.59003 8.95096 8.59003C8.84578 8.59003 8.72325 8.59003 8.62479 8.59591C8.46766 9.32037 8.35044 9.89771 8.27495 10.3395C8.42088 10.3678 8.56044 10.3678 8.64838 10.3678C8.84047 10.3678 9.14268 10.3507 9.394 10.249C9.75461 10.1018 10.0517 9.68854 10.0517 9.27521C10.0517 8.87312 9.73731 8.66369 9.35268 8.6128ZM9.5568 6.87489C9.38201 6.87489 9.20108 6.88042 9.02687 6.8973C8.82848 7.68995 8.75909 7.98419 8.67115 8.39774C8.75909 8.40889 8.84578 8.41441 8.97477 8.41441C9.17831 8.41441 9.52752 8.39774 9.78941 8.24468C10.1103 8.05807 10.2553 7.73533 10.2553 7.45775C10.2553 7.0391 9.95305 6.87489 9.5568 6.87489Z" fill="#1B0757"/>
<path d="M13.263 10.3678C12.9771 10.5318 12.6454 10.6171 12.3127 10.6171C11.812 10.6171 11.1545 10.3508 11.1545 9.45084C11.1545 8.56196 11.7601 7.83729 12.6511 7.83729C13.2046 7.83729 13.6944 8.08069 13.6944 8.76545C13.6944 8.97509 13.6529 9.12768 13.6293 9.22416C13.1989 9.20155 13.0353 9.19587 12.342 9.19587C12.1212 9.19587 11.8178 9.20155 11.6379 9.20707C11.6258 9.28115 11.6085 9.38858 11.6085 9.53549C11.6085 10.2714 12.1265 10.4132 12.4527 10.4132C12.901 10.4132 13.1873 10.2093 13.3208 10.113H13.3389L13.263 10.3678ZM11.6777 8.98097C11.9171 8.99785 12.2319 9.00338 12.4702 9.00338C12.6975 9.00338 13.0302 9.00338 13.2457 8.98097C13.263 8.91278 13.2803 8.82223 13.2803 8.6749C13.2803 8.17102 12.9543 8.00129 12.6511 8.00129C12.3369 8.00129 11.8535 8.19973 11.6777 8.98097Z" fill="#1B0757"/>
<path d="M15.6867 7.83176C16.6078 7.83176 16.9273 8.36352 16.9273 8.9358C16.9273 9.76769 16.2808 10.6228 15.2793 10.6228C14.3182 10.6228 14.0616 9.97123 14.0616 9.48464C14.0616 8.6749 14.6792 7.83176 15.6867 7.83176ZM15.262 10.4415C16.1412 10.4415 16.468 9.39426 16.468 8.83364C16.468 8.36352 16.1941 8.0127 15.6924 8.0127C14.8483 8.0127 14.5223 8.99217 14.5223 9.62056C14.5223 10.0962 14.7376 10.4415 15.262 10.4415Z" fill="#1B0757"/>
<path d="M17.9139 9.53549C17.8207 9.49585 17.4939 9.36008 17.4939 8.90137C17.4939 8.36946 17.9365 7.83177 18.7698 7.83177C18.9618 7.83177 19.0442 7.85396 19.2133 7.89955C19.3173 7.92783 19.3875 7.92784 19.5098 7.92784C19.6498 7.92784 19.9347 7.91054 20.0865 7.90502C20.0865 7.93904 20.0745 7.97853 20.0745 8.02432C20.0745 8.06928 20.0865 8.10898 20.0865 8.14295C19.8067 8.12607 19.6724 8.12012 19.5328 8.11445C19.5967 8.194 19.6964 8.32424 19.6964 8.57884C19.6964 8.89569 19.5275 9.29231 19.1372 9.50174C18.8633 9.64907 18.5368 9.65985 18.3506 9.65985C18.2226 9.65985 18.1001 9.65459 18.0124 9.64907C17.9485 9.68856 17.7743 9.78483 17.7743 9.96045C17.7743 10.1869 18.0179 10.1926 18.2043 10.1926C18.8633 10.1981 19.0733 10.1981 19.2879 10.3227C19.5035 10.447 19.5448 10.6737 19.5448 10.8149C19.5448 11.251 19.1597 12.0437 18.0415 12.0437C17.7678 12.0437 17.4996 11.9987 17.3075 11.8453C17.156 11.7266 17.0388 11.5284 17.0388 11.3076C17.0388 11.0417 17.2025 10.7928 17.4237 10.6566C17.5521 10.5772 17.6636 10.5378 17.7275 10.515L17.733 10.4755C17.6453 10.4529 17.4125 10.3847 17.4125 10.1471C17.4125 9.79598 17.7387 9.65459 17.9139 9.5754V9.53549ZM18.1056 11.8738C18.8046 11.8738 19.1482 11.3925 19.1482 10.9906C19.1482 10.5491 18.6712 10.5318 18.3563 10.5318C18.2043 10.5318 17.9192 10.5435 17.7157 10.6737C17.43 10.8548 17.3889 11.1379 17.3889 11.2795C17.3889 11.704 17.733 11.8738 18.1056 11.8738ZM18.4784 9.49585C19.0442 9.49585 19.2531 8.87923 19.2531 8.53346C19.2531 8.20541 19.0548 7.99541 18.7406 7.99541C18.1522 7.99541 17.9432 8.60145 17.9432 8.93007C17.9432 9.36008 18.2336 9.49585 18.4784 9.49585Z" fill="#1B0757"/>
<path d="M22.3303 10.3678C22.0442 10.5318 21.7127 10.6171 21.3808 10.6171C20.8793 10.6171 20.2216 10.3508 20.2216 9.45084C20.2216 8.56196 20.8272 7.83729 21.7182 7.83729C22.2719 7.83729 22.7616 8.08069 22.7616 8.76545C22.7616 8.97509 22.7204 9.12768 22.6975 9.22416C22.2662 9.20155 22.1028 9.19587 21.4101 9.19587C21.1881 9.19587 20.8859 9.20155 20.705 9.20707C20.6929 9.28115 20.6756 9.38858 20.6756 9.53549C20.6756 10.2714 21.1946 10.4132 21.5208 10.4132C21.9691 10.4132 22.2544 10.2093 22.389 10.113H22.4062L22.3303 10.3678ZM20.7459 8.98097C20.9846 8.99785 21.2986 9.00338 21.5381 9.00338C21.7646 9.00338 22.0971 9.00338 22.3128 8.98097C22.3303 8.91278 22.3476 8.82223 22.3476 8.6749C22.3476 8.17102 22.0214 8.00129 21.7182 8.00129C21.4038 8.00129 20.9207 8.19973 20.7459 8.98097Z" fill="#1B0757"/>
<path d="M24.0152 8.30126L24.0377 8.31267C24.2014 8.11444 24.5565 7.85395 24.9991 7.85395C25.4128 7.85395 25.8148 8.08068 25.8148 8.53345C25.8148 8.68078 25.8027 8.73757 25.6814 9.24671C25.6163 9.51313 25.4419 10.3286 25.4191 10.5659C25.3542 10.5549 25.2795 10.5435 25.1971 10.5435C25.1106 10.5435 25.0109 10.5549 24.9413 10.5659C25.0278 10.3113 25.3778 9.01472 25.3778 8.62441C25.3778 8.28458 25.0919 8.12011 24.8015 8.12011C24.6086 8.12011 24.1309 8.21071 23.9564 8.72616C23.8224 9.11688 23.5837 10.3847 23.5544 10.5659C23.496 10.5549 23.4201 10.5435 23.3387 10.5435C23.2577 10.5435 23.1698 10.5549 23.1061 10.5659C23.2632 10.0453 23.6183 8.34095 23.6944 7.88245C23.7527 7.89407 23.8224 7.90501 23.9045 7.90501C23.9736 7.90501 24.055 7.89407 24.1253 7.88245L24.0152 8.30126Z" fill="#1B0757"/>
<path d="M28.5126 10.0622C28.3208 10.2999 28.0465 10.6398 27.4765 10.6398C26.7712 10.6398 26.4276 10.1188 26.4276 9.53553C26.4276 8.82227 26.923 7.843 27.9478 7.843C28.5712 7.843 28.7455 8.22195 28.8278 8.40325H28.8506C28.9904 7.68999 29.1542 6.94818 29.2525 6.33136C29.3166 6.34256 29.3988 6.35397 29.4855 6.35397C29.5734 6.35397 29.6491 6.34256 29.7132 6.33136C29.3752 7.67306 29.2525 8.29578 29.0026 9.49036C28.944 9.76772 28.8626 10.1869 28.8041 10.5659C28.7519 10.5549 28.7055 10.5435 28.6058 10.5435C28.507 10.5435 28.4484 10.5549 28.385 10.5659L28.5126 10.0622ZM27.598 10.4189C28.4778 10.4189 28.7282 9.30927 28.7282 8.81638C28.7282 8.59007 28.6523 8.0467 28.0176 8.0467C27.1094 8.0467 26.8937 9.13365 26.8937 9.56975C26.8937 10.1188 27.1503 10.4189 27.598 10.4189Z" fill="#1B0757"/>
<path d="M31.8282 10.3678C31.5429 10.5318 31.2116 10.6171 30.8789 10.6171C30.378 10.6171 29.7195 10.3508 29.7195 9.45084C29.7195 8.56196 30.3259 7.83729 31.2171 7.83729C31.7706 7.83729 32.2591 8.08069 32.2591 8.76545C32.2591 8.97509 32.2192 9.12768 32.1956 9.22416C31.7641 9.20155 31.6015 9.19587 30.908 9.19587C30.687 9.19587 30.3838 9.20155 30.2037 9.20707C30.1916 9.28115 30.1743 9.38858 30.1743 9.53549C30.1743 10.2714 30.6923 10.4132 31.0187 10.4132C31.4672 10.4132 31.7521 10.2093 31.8864 10.113H31.9039L31.8282 10.3678ZM30.2439 8.98097C30.4833 8.99785 30.7975 9.00338 31.036 9.00338C31.2635 9.00338 31.5952 9.00338 31.8105 8.98097C31.8282 8.91278 31.8455 8.82223 31.8455 8.6749C31.8455 8.17102 31.5193 8.00129 31.2171 8.00129C30.9025 8.00129 30.4194 8.19973 30.2439 8.98097Z" fill="#1B0757"/>
<path d="M35.162 6.68807C35.2322 6.69928 35.331 6.71027 35.413 6.71027C35.5066 6.71027 35.6047 6.69928 35.6806 6.68807C35.3665 7.84848 35.0049 9.52434 34.8303 10.5659C34.7601 10.5549 34.6732 10.5435 34.5735 10.5435C34.4864 10.5435 34.3873 10.5549 34.3114 10.5659C34.6091 9.47344 34.9937 7.68422 35.162 6.68807Z" fill="#1B0757"/>
<path d="M36.7534 8.30126L36.7764 8.31267C36.9396 8.11444 37.2954 7.85395 37.7374 7.85395C38.1515 7.85395 38.5534 8.08068 38.5534 8.53345C38.5534 8.68078 38.5412 8.73757 38.4191 9.24671C38.355 9.51313 38.1806 10.3286 38.1566 10.5659C38.0931 10.5549 38.0172 10.5435 37.9358 10.5435C37.8479 10.5435 37.7492 10.5549 37.679 10.5659C37.7665 10.3113 38.1165 9.01472 38.1165 8.62441C38.1165 8.28458 37.8306 8.12011 37.5389 8.12011C37.3473 8.12011 36.8694 8.21071 36.6948 8.72616C36.5607 9.11688 36.322 10.3847 36.2931 10.5659C36.2345 10.5549 36.1588 10.5435 36.0774 10.5435C35.996 10.5435 35.9085 10.5549 35.8444 10.5659C36.0015 10.0453 36.3566 8.34095 36.4325 7.88245C36.4909 7.89407 36.5607 7.90501 36.6425 7.90501C36.7123 7.90501 36.7937 7.89407 36.8639 7.88245L36.7534 8.30126Z" fill="#1B0757"/>
<path d="M40.7733 8.33543C40.7157 8.12606 40.5172 8.00128 40.2964 8.00128C39.9582 8.00128 39.7425 8.27865 39.7425 8.53913C39.7425 8.81634 39.981 8.92439 40.2431 9.03734C40.4884 9.14497 40.7682 9.26932 40.7682 9.63744C40.7682 10.1584 40.2431 10.6281 39.5675 10.6281C39.3288 10.6281 39.1426 10.5827 38.9387 10.4643C39.0266 10.3286 39.0907 10.1696 39.1249 10.085H39.1666C39.2531 10.3113 39.4861 10.4242 39.7425 10.4242C40.1851 10.4242 40.3775 10.0903 40.3775 9.84098C40.3775 9.59248 40.2207 9.5184 39.9118 9.37695C39.6615 9.26385 39.3813 9.13361 39.3813 8.72616C39.3813 8.34096 39.6672 7.81446 40.4471 7.81446C40.6573 7.81446 40.7916 7.84848 40.9782 7.92783C40.8608 8.18243 40.8435 8.26177 40.8266 8.33543H40.7733Z" fill="#1B0757"/>
<path d="M42.563 7.17487C42.4871 7.43515 42.4287 7.69564 42.3701 7.95612C42.5509 7.95612 42.7721 7.93903 42.9755 7.93351C42.9527 8.0127 42.941 8.08615 42.941 8.1657C42.7375 8.15961 42.499 8.14294 42.3239 8.14294L42.097 9.20707C42.0441 9.45083 41.9627 9.81858 41.9627 10.0001C41.9627 10.2999 42.2073 10.4132 42.3762 10.4132C42.5101 10.4132 42.6444 10.3678 42.7604 10.2999L42.7492 10.447C42.5925 10.5659 42.3473 10.6228 42.155 10.6228C41.8522 10.6228 41.5317 10.4415 41.5317 10.0903C41.5317 9.9433 41.5724 9.77363 41.6127 9.5866C41.782 8.81103 41.8111 8.72617 41.9281 8.14294C41.8176 8.14294 41.6717 8.14862 41.5435 8.15435C41.5659 8.09225 41.5785 8.04666 41.5785 7.93351C41.7006 7.93903 41.8522 7.95612 41.9509 7.95612L42.0557 7.35596L42.563 7.17487Z" fill="#1B0757"/>
<path d="M45.2137 10.3678C44.9281 10.5318 44.596 10.6171 44.2643 10.6171C43.7631 10.6171 43.1047 10.3508 43.1047 9.45084C43.1047 8.56196 43.7108 7.83729 44.6025 7.83729C45.1561 7.83729 45.6445 8.08069 45.6445 8.76545C45.6445 8.97509 45.6038 9.12768 45.581 9.22416C45.1495 9.20155 44.9867 9.19587 44.2938 9.19587C44.071 9.19587 43.7692 9.20155 43.5877 9.20707C43.5775 9.28115 43.5592 9.38858 43.5592 9.53549C43.5592 10.2714 44.0775 10.4132 44.4041 10.4132C44.8524 10.4132 45.1374 10.2093 45.2721 10.113H45.2894L45.2137 10.3678ZM43.6294 8.98097C43.8675 8.99785 44.1829 9.00338 44.421 9.00338C44.6489 9.00338 44.9806 9.00338 45.1958 8.98097C45.2137 8.91278 45.231 8.82223 45.231 8.6749C45.231 8.17102 44.9043 8.00129 44.6025 8.00129C44.2871 8.00129 43.8038 8.19973 43.6294 8.98097Z" fill="#1B0757"/>
<path d="M46.4555 10.5659C46.3971 10.5549 46.3218 10.5435 46.2164 10.5435C46.1183 10.5435 46.0475 10.5549 45.9833 10.5659C46.3629 9.20154 46.776 7.1582 46.8981 6.33131C46.9618 6.34252 47.0202 6.35393 47.1195 6.35393C47.207 6.35393 47.3057 6.34252 47.3881 6.33131C47.3 6.63129 46.6067 9.59816 46.4555 10.5659Z" fill="#1B0757"/>
<path d="M47.8602 10.5659C47.8016 10.5549 47.7263 10.5435 47.6211 10.5435C47.5218 10.5435 47.4516 10.5549 47.3881 10.5659C47.767 9.20154 48.1797 7.1582 48.3022 6.33131C48.3664 6.34252 48.425 6.35393 48.523 6.35393C48.6112 6.35393 48.7109 6.34252 48.7923 6.33131C48.7048 6.63129 48.0112 9.59816 47.8602 10.5659Z" fill="#1B0757"/>
<path d="M49.2817 10.5659C49.1936 10.5549 49.1004 10.5435 49.0141 10.5435C48.9209 10.5435 48.8452 10.5549 48.7866 10.5659C49.042 9.76221 49.3574 8.09756 49.3869 7.88245C49.4734 7.89407 49.5497 7.90501 49.6318 7.90501C49.7187 7.90501 49.8007 7.89407 49.8703 7.88245C49.7593 8.2563 49.3574 9.89245 49.2817 10.5659ZM49.8292 6.71616C49.9873 6.71616 50.1083 6.84093 50.1083 6.98805C50.1083 7.13496 49.9873 7.25994 49.8292 7.25994C49.6718 7.25994 49.5497 7.13496 49.5497 6.98805C49.5497 6.84093 49.6718 6.71616 49.8292 6.71616Z" fill="#1B0757"/>
<path d="M51.1123 8.30126L51.1346 8.31267C51.2978 8.11444 51.6529 7.85395 52.0956 7.85395C52.5092 7.85395 52.9114 8.08068 52.9114 8.53345C52.9114 8.68078 52.8995 8.73757 52.7775 9.24671C52.7129 9.51313 52.5389 10.3286 52.5155 10.5659C52.4509 10.5549 52.3754 10.5435 52.2941 10.5435C52.206 10.5435 52.1076 10.5549 52.0371 10.5659C52.1253 10.3113 52.4749 9.01472 52.4749 8.62441C52.4749 8.28458 52.1889 8.12011 51.8972 8.12011C51.7052 8.12011 51.2276 8.21071 51.0537 8.72616C50.9189 9.11688 50.6808 10.3847 50.6513 10.5659C50.5927 10.5549 50.517 10.5435 50.4354 10.5435C50.3542 10.5435 50.2667 10.5549 50.2026 10.5659C50.3603 10.0453 50.7154 8.34095 50.7911 7.88245C50.8497 7.89407 50.9189 7.90501 51.0014 7.90501C51.0705 7.90501 51.1517 7.89407 51.2221 7.88245L51.1123 8.30126Z" fill="#1B0757"/>
<path d="M54.0774 9.53549C53.9841 9.49585 53.658 9.36008 53.658 8.90137C53.658 8.36946 54.1013 7.83177 54.9344 7.83177C55.1266 7.83177 55.2079 7.85396 55.3767 7.89955C55.4814 7.92783 55.5512 7.92784 55.6731 7.92784C55.8132 7.92784 56.0998 7.91054 56.2498 7.90502C56.2498 7.93904 56.2383 7.97853 56.2383 8.02432C56.2383 8.06928 56.2498 8.10898 56.2498 8.14295C55.97 8.12607 55.8367 8.12012 55.6971 8.11445C55.7611 8.194 55.8601 8.32424 55.8601 8.57884C55.8601 8.89569 55.6913 9.29231 55.3006 9.50174C55.0276 9.64907 54.7015 9.65985 54.515 9.65985C54.3858 9.65985 54.2634 9.65459 54.1769 9.64907C54.1123 9.68856 53.9377 9.78483 53.9377 9.96045C53.9377 10.1869 54.1826 10.1926 54.3691 10.1926C55.0276 10.1981 55.2365 10.1981 55.4522 10.3227C55.6679 10.447 55.709 10.6737 55.709 10.8149C55.709 11.251 55.3246 12.0437 54.2066 12.0437C53.932 12.0437 53.6648 11.9987 53.4715 11.8453C53.3199 11.7266 53.2042 11.5284 53.2042 11.3076C53.2042 11.0417 53.3662 10.7928 53.5882 10.6566C53.7163 10.5772 53.8268 10.5378 53.8909 10.515L53.8971 10.4755C53.8096 10.4529 53.5767 10.3847 53.5767 10.1471C53.5767 9.79598 53.9028 9.65459 54.0774 9.5754V9.53549ZM54.2701 11.8738C54.9687 11.8738 55.3126 11.3925 55.3126 10.9906C55.3126 10.5491 54.8349 10.5318 54.5202 10.5318C54.3691 10.5318 54.0836 10.5435 53.8794 10.6737C53.5944 10.8548 53.5528 11.1379 53.5528 11.2795C53.5528 11.704 53.8971 11.8738 54.2701 11.8738ZM54.6431 9.49585C55.2079 9.49585 55.4178 8.87923 55.4178 8.53346C55.4178 8.20541 55.2193 7.99541 54.9052 7.99541C54.3165 7.99541 54.106 8.60145 54.106 8.93007C54.106 9.36008 54.3978 9.49585 54.6431 9.49585Z" fill="#1B0757"/>
<path d="M1.05811 40C0.475477 40 -0.00234985 39.5228 -0.00234985 38.9393V38.7421C-0.00234985 38.1589 0.475477 37.6817 1.05811 37.6817H56.9432C57.5272 37.6817 58.0044 38.1589 58.0044 38.7421V38.9393C58.0044 39.5228 57.5272 40 56.9432 40H1.05811Z" fill="#1B0757"/>
</svg>
