<svg width="400" height="424" viewBox="0 0 400 424" fill="none" xmlns="http://www.w3.org/2000/svg">
<path d="M148.568 127.2C143.056 127.2 143.056 127.2 136.696 120.84C135.848 117.024 136.272 113.632 134.576 111.088C130.76 105.152 130.336 98.368 128.64 91.584C128.216 90.736 128.64 89.04 128.216 88.616C124.4 85.224 124.4 80.136 122.28 76.32C121.856 75.472 121.008 74.624 121.008 73.776C121.432 67.416 118.04 62.328 115.496 57.24C112.528 50.88 111.68 43.248 107.016 37.312L108.288 31.376C109.984 29.68 111.68 30.528 113.8 32.224C117.192 35.192 120.584 39.432 123.128 44.52C126.52 51.728 129.912 59.36 132.032 67.416C134.152 75.048 137.968 82.256 139.664 89.888C142.632 92.432 140.936 95.824 141.784 99.216C144.328 106.848 146.024 114.904 148.992 122.536C148.992 123.808 148.568 125.08 148.568 127.2Z" fill="#1B0757"/>
<path d="M361.416 127.2C362.264 128.048 363.536 129.744 364.808 131.44C363.96 133.136 362.688 135.256 361.84 137.376C360.992 139.92 356.752 138.224 357.176 141.616C354.208 142.888 351.24 145.008 347.848 145.432C344.88 145.856 343.184 147.552 340.64 148.4C335.128 150.944 329.192 153.488 323.256 155.184C317.744 156.88 312.656 159.424 307.144 161.544C301.208 163.664 296.12 167.056 289.76 168.752C288.064 169.176 288.488 172.568 285.944 172.144C285.096 172.144 283.4 173.416 282.976 172.992C281.704 171.72 281.704 172.144 280.856 173.84C277.888 177.656 274.496 177.656 269.832 174.264C274.496 170.448 279.16 166.208 283.824 162.392C285.944 160.696 288.912 161.544 291.032 158.576C292.304 156.88 295.696 156.032 297.816 154.76C300.36 153.488 302.48 152.64 305.024 151.792C307.568 150.944 310.96 149.248 313.504 146.28C313.928 145.856 314.352 145.432 314.352 145.432C319.864 146.704 323.256 142.464 327.072 140.768C332.16 138.224 337.672 136.528 343.184 134.408C345.728 133.136 349.968 133.136 350.816 128.896C350.816 128.472 352.512 128.472 353.784 128.472C356.328 128.472 358.448 128.048 361.416 127.2Z" fill="#1B0757"/>
<path d="M101.08 253.552C98.536 256.944 97.264 259.912 95.144 262.032C91.328 266.272 87.936 270.512 83.696 273.48C79.456 276.448 75.216 279.416 70.552 280.688C65.464 281.96 61.224 284.928 56.56 286.624C46.384 290.016 36.632 294.68 26.88 298.92C25.608 299.344 23.912 299.768 23.064 301.04C20.52 304.432 17.128 303.584 14.16 303.584C12.464 300.616 10.344 298.072 13.312 294.68V293.832C18.4 292.136 21.792 287.048 27.304 286.624C30.272 286.624 31.968 285.352 34.088 284.08C37.48 282.384 40.448 279.416 45.112 280.264C46.384 280.264 47.656 279.416 48.928 278.992C56.984 275.6 64.616 272.208 73.096 269.664C75.216 269.24 76.912 267.544 78.608 266.272C83.272 262.88 87.512 259.488 92.176 256.096C93.024 255.672 93.872 255.248 94.72 254.824C95.568 254.4 95.992 254.4 96.84 254.4C97.688 253.128 98.96 253.552 101.08 253.552Z" fill="#1B0757"/>
<path d="M220.648 291.288C221.92 290.864 222.768 290.44 224.464 289.592C224.464 289.592 224.888 289.592 225.312 290.016C227.432 292.984 229.552 295.952 231.672 298.92C238.032 309.096 243.544 319.272 249.48 329.872C251.6 333.688 253.296 337.504 254.992 341.744C256.688 346.832 259.232 351.496 260.928 356.584C262.624 362.096 265.168 367.184 267.712 372.272C268.984 374.816 268.984 376.936 268.984 379.48C268.984 381.6 268.136 383.72 271.104 385.416C269.408 385.416 267.712 386.264 267.288 385.84C265.168 384.144 261.776 382.024 261.776 380.328C261.776 377.36 259.232 376.088 258.384 373.968C257.536 371.848 256.688 369.728 255.84 367.184C253.72 359.976 249.904 353.192 247.36 345.984C245.664 340.472 241.848 335.808 239.304 330.72C237.608 326.48 235.488 322.24 233.368 318.424C231.248 314.184 229.128 310.368 227.008 306.128C225.736 304.008 224.464 302.736 223.192 300.616C221.072 297.224 218.952 294.68 220.648 291.288Z" fill="#1B0757"/>
<path d="M216.408 123.808C214.712 122.536 213.44 121.264 212.168 120.416C213.44 115.752 214.288 111.512 215.136 107.272C216.408 103.032 216.408 97.944 219.376 94.128C217.68 89.888 220.648 86.92 221.496 83.104C222.344 79.288 224.04 75.472 224.464 71.232C224.888 67.416 227.008 63.6 229.128 59.784C232.096 55.12 235.912 50.456 239.304 46.216C239.728 45.368 240.576 44.944 242.272 43.672C243.12 46.64 244.392 48.76 244.392 50.88C244.392 53 243.12 55.544 242.272 57.664C241.848 60.208 239.728 61.904 240.152 64.448C240.576 67.416 235.912 68.264 237.184 71.656C233.792 77.168 233.368 83.952 230.824 89.888C228.28 95.824 225.736 101.336 223.616 107.272C222.768 109.816 222.344 112.36 221.92 114.904C221.072 118.72 218.952 121.264 216.408 123.808Z" fill="#1B0757"/>
<path d="M125.248 392.2C125.248 390.928 125.248 389.656 125.248 388.384C124.824 383.296 124.4 383.296 126.096 379.904C126.52 379.056 126.944 378.632 126.944 377.784C126.944 367.608 133.304 359.552 135 349.8C135.424 347.68 137.544 345.984 138.392 344.288C139.24 342.168 139.24 339.2 140.936 337.504C142.632 335.384 142.632 333.264 143.056 331.144C143.48 329.448 144.752 327.752 145.6 326.056C146.448 324.36 147.296 322.24 147.296 320.544C146.872 317.152 148.144 315.032 150.688 313.336C151.112 312.912 152.384 312.064 152.384 311.64C152.384 308.248 152.808 305.28 156.624 304.008C157.048 304.008 156.624 302.736 157.048 301.888C157.472 300.616 158.32 299.344 159.168 298.072C162.984 300.192 162.56 300.192 161.712 304.008C160.44 308.672 159.592 313.336 156.2 317.152C155.776 318 155.776 318.848 155.352 320.12C154.928 323.936 154.928 323.936 151.112 329.872C150.264 331.568 150.688 333.688 149.84 335.384C146.448 344.288 142.632 352.768 139.664 361.672C138.816 363.792 137.968 365.064 137.12 366.76C135.848 369.728 134.152 372.696 134.576 375.664C134.576 376.512 135 377.784 134.576 377.784C130.76 380.752 132.456 385.84 129.912 388.808C128.64 390.928 126.52 391.352 125.248 392.2Z" fill="#1B0757"/>
<path d="M31.968 223.872C31.12 220.48 34.512 219.632 35.36 217.936C39.176 219.632 40.024 214.544 43.416 214.544C44.264 214.544 45.112 212.848 45.96 213.272C50.624 214.12 54.864 211.152 59.528 211.576C62.072 211.576 64.192 210.728 66.736 210.304C68.856 209.88 70.976 209.88 73.096 209.456C77.336 208.184 81.576 208.608 85.816 209.456C87.512 209.88 88.784 210.728 90.056 209.032C90.904 209.88 91.752 210.728 93.024 211.576C91.328 213.272 90.056 214.968 88.784 216.664C83.696 216.24 78.184 218.36 73.096 219.208C65.888 220.056 59.104 222.6 51.896 223.024C46.384 223.448 40.448 224.296 34.512 224.296C33.664 223.872 32.816 223.872 31.968 223.872Z" fill="#1B0757"/>
<path d="M343.184 284.08C340.216 287.048 337.248 286.624 334.28 285.352C328.768 282.808 322.832 280.264 316.896 278.144C312.656 276.448 308.416 274.328 304.6 272.208C300.36 270.088 296.968 266.696 293.152 264.152C290.608 262.88 287.64 262.032 285.52 260.76C282.976 259.064 280.432 258.216 277.464 257.792C274.072 257.792 273.648 255.248 274.072 252.28C275.344 252.704 276.616 252.704 277.888 253.552C280.008 254.4 281.704 255.248 284.672 255.248C285.52 255.248 286.792 254.824 286.792 255.248C289.336 259.064 294 257.792 297.392 259.912C300.784 262.032 304.176 263.728 307.144 265.848C307.992 266.272 308.84 267.544 309.688 267.544C316.472 267.12 321.56 272.208 327.496 273.056C333.432 273.904 336.4 279.416 341.912 280.264C341.488 280.264 342.336 282.384 343.184 284.08Z" fill="#1B0757"/>
<path d="M288.488 93.28C288.488 96.672 289.336 99.64 285.096 100.912C282.976 101.336 284.672 103.88 283.824 104.728C280.432 108.544 277.04 112.784 273.224 116.176C270.256 119.144 267.288 121.264 264.32 124.232C263.472 124.656 263.896 126.776 263.048 126.776C259.656 127.624 257.96 131.016 255.416 132.712C252.448 135.256 250.328 135.256 246.512 132.712C248.208 130.592 247.784 127.2 251.6 126.776C252.024 126.776 252.024 124.232 252.448 123.384C252.872 122.536 254.992 122.112 254.992 121.688C255.84 118.72 258.808 117.448 260.08 115.328C261.352 112.784 263.472 111.512 265.592 109.816C269.408 106.848 271.528 102.184 275.768 99.64C275.344 96.248 279.16 97.52 280.432 96.248C282.976 94.552 285.944 94.128 288.488 93.28Z" fill="#1B0757"/>
<path d="M109.984 174.688C104.048 177.232 99.384 174.264 95.568 171.72C90.056 167.904 84.12 165.784 78.184 163.24C77.336 162.816 76.488 163.664 76.064 163.24C73.096 160.696 68.856 160.696 66.736 157.304C63.344 157.304 60.376 156.032 56.984 154.336C54.44 153.064 52.32 150.52 48.08 150.52C45.536 150.52 43.84 146.704 40.448 143.736C43.416 143.312 45.112 142.464 46.384 142.888C51.896 144.16 57.408 146.28 62.496 149.248C64.616 150.52 66.736 152.216 69.704 152.216C73.096 152.216 75.64 156.032 79.456 155.184C82.848 158.152 87.512 158.576 90.904 161.12C94.296 163.664 98.96 164.512 101.928 168.328C103.2 169.6 105.32 169.6 107.016 170.872C108.288 171.72 108.712 173.416 109.984 174.688Z" fill="#1B0757"/>
<path d="M325.376 209.456C322.408 213.272 320.288 215.392 316.472 214.544C310.536 217.936 303.328 213.696 297.392 217.512C296.12 213.696 293.152 218.36 290.608 216.24C289.336 214.968 285.52 215.816 282.976 215.816C282.128 213.272 281.28 211.152 280.432 208.608C283.4 208.184 286.368 207.76 288.488 207.336C291.456 206.488 294.424 206.912 297.392 206.488C300.36 206.064 303.752 205.216 306.72 204.792C311.808 204.368 316.472 205.216 321.56 206.488C322.832 206.912 323.68 208.184 325.376 209.456Z" fill="#1B0757"/>
<path d="M99.808 326.48C100.232 323.512 100.232 321.816 100.656 320.544C104.472 313.336 109.136 306.976 112.528 299.768C113.8 296.8 114.224 293.832 116.344 291.288C118.04 288.744 120.16 286.624 121.856 284.08C122.28 283.656 122.28 282.808 122.704 281.536C124.824 281.536 127.368 281.536 129.912 281.536C131.184 284.928 129.064 287.048 127.792 289.168C124.824 293.832 122.28 298.072 121.008 303.584C120.584 305.28 119.312 306.976 118.04 308.672C116.344 311.216 114.648 313.336 114.648 316.728C114.648 319.272 114.224 318.848 109.136 320.968C106.168 321.392 104.048 323.512 99.808 326.48Z" fill="#1B0757"/>
<path d="M188.424 114.48C183.336 114.48 182.912 114.056 182.912 109.816C182.912 106 183.76 102.184 181.216 98.792C182.912 97.096 181.216 94.976 182.488 93.28C180.368 91.584 181.64 89.04 181.64 86.92C181.216 84.376 181.64 81.832 181.64 79.288C181.64 74.624 184.184 70.384 183.336 66.144C183.336 65.72 184.608 64.872 185.88 63.6C186.728 64.872 187.576 66.144 188 67.416C188.848 72.08 186.304 77.168 189.696 81.408C187.152 83.528 188 86.496 188.424 89.464C188.848 92.856 191.392 96.248 188.848 100.064C191.392 102.608 188.848 106.848 191.392 109.816C190.968 109.816 189.272 112.784 188.424 114.48Z" fill="#1B0757"/>
<path d="M197.752 307.4C199.448 311.216 204.112 313.76 200.296 318C203.264 320.968 202.416 325.208 201.568 328.176C200.72 331.568 202.416 334.112 201.992 337.08C201.568 340.472 201.992 344.288 201.992 347.68C201.992 348.952 201.992 350.224 201.568 351.92C198.176 350.224 196.48 348.952 195.208 345.56C193.512 339.624 193.936 333.688 193.936 327.752C193.936 326.056 195.632 323.512 194.784 322.664C193.512 320.968 196.056 319.272 193.936 318C196.056 316.728 195.208 315.032 195.208 313.336C195.632 311.216 196.48 309.52 197.752 307.4Z" fill="#1B0757"/>
<path d="M121.432 140.768C115.072 138.224 110.832 137.8 107.864 133.56C107.016 132.288 104.896 131.44 103.624 130.592C99.384 128.472 95.144 126.776 92.176 122.96C91.328 121.688 91.328 119.992 90.48 117.448C94.72 119.992 97.688 122.536 101.08 124.232C104.472 125.928 107.864 126.352 110.832 128.896C113.376 131.016 116.768 132.712 119.312 134.832C120.16 135.256 120.16 137.376 121.432 140.768Z" fill="#1B0757"/>
<path d="M285.096 302.736C281.28 301.464 276.616 302.312 275.344 296.8C275.344 295.952 273.648 295.104 272.8 295.104C268.56 294.68 265.592 292.136 263.048 288.744C260.928 286.2 256.688 285.352 256.264 280.688C261.776 283.232 266.44 287.048 271.952 290.016C277.888 292.984 280.856 298.92 285.096 302.736Z" fill="#1B0757"/>
<path d="M132.456 278.144C132.456 278.992 132.456 280.264 132.456 281.112C132.032 281.112 132.032 281.112 131.608 281.112C131.608 280.264 131.608 278.992 131.608 278.144C132.032 278.144 132.456 278.144 132.456 278.144Z" fill="#1B0757"/>
<path d="M125.248 392.624C124.824 393.048 124.824 393.048 124.4 393.472C124.4 393.048 123.976 392.624 123.976 392.624C124.4 392.2 124.824 392.2 125.248 392.2V392.624Z" fill="#1B0757"/>
</svg>
