<svg width="20" height="22" viewBox="0 0 20 22" fill="none" xmlns="http://www.w3.org/2000/svg">
<path d="M0.794825 12.5598C-0.0986946 12.0109 -0.0998948 12.0085 0.0959452 10.9604C0.781385 10.5712 1.53715 10.2822 2.35963 10.3285C3.82195 10.4113 5.30083 10.2232 6.74707 10.5803C7.53451 10.4358 8.32843 10.7077 9.16099 10.6028C9.38779 9.7314 9.40291 8.88588 9.43291 8.04348C9.47011 7.00284 9.49986 5.96197 9.52386 4.92108C9.52915 4.69141 9.48667 4.46101 9.48283 4.23061C9.46531 3.18636 9.44251 2.14189 9.44611 1.09764C9.44731 0.740526 9.48018 0.740766 10.0756 0.199806C10.4519 0.578525 11.0985 0.631326 11.3027 1.24237C11.3246 1.30765 11.5396 1.30981 11.6656 1.33861C11.7494 1.35757 11.8341 1.37197 11.9587 1.39621C11.969 1.57333 12.0441 1.78621 11.9803 1.94245C11.5768 2.93005 11.7542 4.01125 11.458 5.01253C11.6536 5.68981 11.3774 6.42444 11.5694 7.05372C11.9073 8.16132 11.7856 9.27372 11.8706 10.383C11.8809 10.5164 11.9229 10.6475 11.9632 10.8426C12.7531 11.0987 13.5571 10.8512 14.344 10.9004C15.1471 10.9506 15.9556 10.9115 16.9317 10.9115C17.0601 10.82 17.3258 10.6304 17.6591 10.3928C18.011 10.4238 18.4279 10.4605 18.9086 10.5028C19.27 11.1596 19.6267 11.8081 20.009 12.5032C19.4635 12.9251 18.8558 13.0561 18.2606 13.0552C17.0769 13.053 15.893 12.9697 14.7105 12.8984C14.1451 12.8644 13.5839 12.7571 13.0185 12.7266C12.4547 12.6961 11.8881 12.7199 11.2636 12.7199C11.3186 13.1872 11.3949 13.5932 11.4067 14.001C11.4189 14.4268 11.3675 14.854 11.3469 15.2809C11.3399 15.423 11.3884 15.5874 11.3325 15.7038C10.973 16.4545 11.0608 17.2436 11.051 18.0373C11.044 18.5888 11.0119 19.148 10.7668 19.6967C10.5439 20.1956 10.5227 20.7851 10.4066 21.3652C10.03 21.7559 9.57811 21.9352 8.95867 21.6827C8.67451 21.3983 8.59411 21.052 8.67811 20.5744C8.85835 19.5508 8.99299 18.5135 9.05659 17.4764C9.13123 16.2599 9.02707 15.0352 9.33331 13.8306C9.40819 13.5361 9.28747 13.192 9.25435 12.8478C8.54059 12.526 7.81699 12.5197 7.12675 12.484C6.37267 12.4448 5.62243 12.4177 4.87363 12.3052C3.49963 12.0985 2.14819 12.3215 0.794825 12.5598Z" fill="#1B0757"/>
</svg>
